<svg width="749" height="612" viewBox="0 0 749 612" fill="none" xmlns="http://www.w3.org/2000/svg">
<g opacity="0.2">
<path opacity="0.0144928" fill-rule="evenodd" clip-rule="evenodd" d="M745.357 442.942L662.962 593.532C660.594 597.861 656.872 599.662 653.836 597.95L548.202 538.362C546.406 537.349 545.054 535.211 544.44 532.411L492.727 296.649C492.245 294.448 492.246 291.961 492.73 289.534L538.203 61.9225C539.082 57.522 541.431 53.8833 544.283 52.503L646.892 2.84173C649.744 1.46142 652.617 2.57264 654.331 5.71828L742.961 168.426C743.906 170.161 744.429 172.394 744.457 174.816L747.487 434.14C747.523 437.219 746.757 440.382 745.357 442.942ZM664.021 594.827C661.202 599.98 656.771 602.125 653.156 600.086L547.522 540.498C545.384 539.293 543.775 536.746 543.044 533.414L491.331 297.652C490.757 295.031 490.758 292.071 491.335 289.182L536.808 61.5698C537.854 56.3311 540.65 51.9993 544.045 50.356L646.654 0.694786C650.05 -0.948454 653.471 0.374449 655.511 4.1193L744.141 166.827C745.266 168.893 745.888 171.551 745.922 174.434L748.951 433.758C748.994 437.424 748.083 441.19 746.416 444.237L664.021 594.827Z" fill="#3803B1"/>
<path opacity="0.0289855" fill-rule="evenodd" clip-rule="evenodd" d="M730.605 454.337L644.305 597.986C641.813 602.134 638.076 603.639 635.132 601.68L533.177 533.837C531.429 532.674 530.16 530.409 529.646 527.537L486.836 288.254C486.431 285.992 486.518 283.481 487.086 281.071L539.681 57.6601C540.705 53.3089 543.155 49.8449 546.023 48.6897L648.759 7.32021C651.628 6.16498 654.433 7.51305 656.024 10.8112L737.692 180.157C738.573 181.984 739.016 184.281 738.96 186.729L733.027 445.64C732.956 448.748 732.085 451.874 730.605 454.337ZM645.308 599.379C642.342 604.316 637.892 606.108 634.388 603.776L532.433 535.933C530.352 534.548 528.84 531.853 528.229 528.434L485.419 289.15C484.937 286.457 485.041 283.468 485.716 280.599L538.312 57.1882C539.531 52.0082 542.447 47.8844 545.862 46.5091L648.598 5.13958C652.013 3.7643 655.353 5.36921 657.246 9.29559L738.914 178.641C739.963 180.816 740.49 183.551 740.424 186.465L734.491 445.376C734.406 449.076 733.37 452.797 731.608 455.729L645.308 599.379Z" fill="#3803B1"/>
<path opacity="0.0434783" fill-rule="evenodd" clip-rule="evenodd" d="M715.657 465.175L625.763 601.55C623.156 605.506 619.414 606.712 616.57 604.514L518.51 528.717C516.814 527.406 515.631 525.022 515.219 522.085L481.268 280.024C480.943 277.707 481.117 275.179 481.766 272.793L541.206 54.1839C542.372 49.8946 544.915 46.6147 547.792 45.6871L650.366 12.6263C653.244 11.6988 655.973 13.2794 657.437 16.721L732.042 192.125C732.857 194.04 733.219 196.395 733.078 198.862L718.363 456.609C718.185 459.736 717.212 462.816 715.657 465.175ZM626.707 603.037C623.603 607.746 619.148 609.182 615.762 606.565L517.703 530.768C515.684 529.208 514.275 526.369 513.784 522.872L479.833 280.812C479.446 278.054 479.654 275.044 480.426 272.203L539.866 53.594C541.255 48.4877 544.282 44.5831 547.707 43.4788L650.281 10.4181C653.707 9.31383 656.957 11.1955 658.699 15.2926L733.304 190.697C734.274 192.976 734.705 195.781 734.537 198.717L719.823 456.464C719.61 460.187 718.452 463.853 716.601 466.661L626.707 603.037Z" fill="#3803B1"/>
<path opacity="0.057971" fill-rule="evenodd" clip-rule="evenodd" d="M700.534 475.44L607.366 604.236C604.652 607.989 600.915 608.895 598.178 606.464L504.216 523.034C502.577 521.578 501.483 519.079 501.174 516.085L476.012 271.987C475.769 269.621 476.029 267.082 476.758 264.727L542.749 51.4962C544.053 47.2812 546.682 44.1942 549.56 43.4963L651.687 18.7371C654.566 18.0392 657.213 19.8473 658.547 23.4228L726.011 204.299C726.756 206.297 727.036 208.705 726.81 211.185L703.519 467.03C703.233 470.168 702.159 473.192 700.534 475.44ZM608.248 605.812C605.016 610.28 600.569 611.358 597.309 608.464L503.348 525.034C501.396 523.301 500.094 520.326 499.726 516.762L474.564 272.664C474.274 269.847 474.585 266.825 475.453 264.021L541.443 50.7902C542.996 45.7722 546.125 42.0972 549.552 41.2663L651.679 16.5072C655.106 15.6764 658.257 17.8289 659.845 22.0854L727.309 202.962C728.197 205.34 728.529 208.207 728.26 211.159L704.969 467.004C704.629 470.74 703.351 474.34 701.416 477.016L608.248 605.812Z" fill="#3803B1"/>
<path opacity="0.0724638" fill-rule="evenodd" clip-rule="evenodd" d="M685.259 485.119L589.143 606.057C586.33 609.597 582.609 610.202 579.985 607.546L490.31 516.818C488.731 515.221 487.729 512.614 487.525 509.571L471.058 264.168C470.897 261.759 471.244 259.216 472.052 256.898L544.281 49.5972C545.72 45.4685 548.427 42.5824 551.298 42.1155L652.699 25.6274C655.57 25.1604 658.128 27.1905 659.328 30.8901L719.596 216.647C720.27 218.723 720.466 221.178 720.155 223.664L688.514 476.889C688.122 480.03 686.951 482.99 685.259 485.119ZM589.96 607.718C586.611 611.932 582.182 612.653 579.057 609.491L489.383 518.763C487.503 516.862 486.311 513.758 486.068 510.135L469.601 264.732C469.409 261.864 469.822 258.837 470.784 256.078L543.013 48.7768C544.726 43.8616 547.948 40.426 551.367 39.8701L652.767 23.382C656.186 22.8261 659.23 25.2428 660.659 29.6471L720.927 215.404C721.729 217.876 721.962 220.798 721.592 223.757L689.952 476.983C689.485 480.721 688.091 484.245 686.076 486.78L589.96 607.718Z" fill="#3803B1"/>
<path opacity="0.0869565" fill-rule="evenodd" clip-rule="evenodd" d="M669.855 494.2L571.121 607.029C568.218 610.347 564.524 610.651 562.018 607.779L476.803 510.104C475.29 508.369 474.383 505.66 474.284 502.576L466.393 256.591C466.315 254.145 466.749 251.606 467.633 249.333L545.776 48.4846C547.344 44.454 550.122 41.7767 552.978 41.5414L653.377 33.2703C656.234 33.035 658.695 35.2807 659.76 39.0944L712.798 229.136C713.398 231.286 713.508 233.781 713.113 236.266L673.373 486.174C672.875 489.308 671.609 492.196 669.855 494.2ZM571.871 608.77C568.415 612.72 564.018 613.082 561.035 609.663L475.82 511.988C474.018 509.923 472.939 506.698 472.821 503.026L464.93 257.041C464.837 254.13 465.353 251.106 466.406 248.4L544.549 47.5523C546.416 42.754 549.722 39.5668 553.123 39.2866L653.522 31.0155C656.923 30.7354 659.853 33.4089 661.12 37.949L714.158 227.99C714.873 230.55 715.004 233.521 714.534 236.478L674.794 486.387C674.2 490.118 672.694 493.555 670.606 495.941L571.871 608.77Z" fill="#3803B1"/>
<path opacity="0.101449" fill-rule="evenodd" clip-rule="evenodd" d="M654.346 502.674L553.327 607.171C550.343 610.257 546.686 610.262 544.305 607.183L463.708 502.925C462.264 501.057 461.456 498.253 461.463 495.135L462.005 249.28C462.01 246.805 462.53 244.275 463.489 242.054L547.207 48.1537C548.899 44.2329 551.739 41.7714 554.573 41.7676L653.702 41.6368C656.536 41.6331 658.894 44.0877 659.82 48.0051L705.616 241.734C706.14 243.953 706.165 246.482 705.686 248.959L658.117 494.876C657.514 497.995 656.157 500.801 654.346 502.674ZM554.008 608.987C550.456 612.662 546.102 612.667 543.268 609.001L462.671 504.744C460.952 502.519 459.99 499.182 459.998 495.47L460.54 249.615C460.546 246.668 461.165 243.656 462.307 241.012L546.024 47.1121C548.04 42.4444 551.42 39.514 554.794 39.5096L653.923 39.3788C657.297 39.3743 660.104 42.2965 661.207 46.9601L707.002 240.689C707.627 243.331 707.656 246.342 707.086 249.29L659.517 495.207C658.799 498.92 657.183 502.26 655.028 504.49L554.008 608.987Z" fill="#3803B1"/>
<path opacity="0.115942" fill-rule="evenodd" clip-rule="evenodd" d="M638.754 510.531L535.787 606.502C532.731 609.35 529.121 609.057 526.87 605.78L451.035 495.317C449.664 493.319 448.956 490.428 449.069 487.285L457.879 242.258C457.969 239.759 458.573 237.246 459.604 235.083L548.546 48.5973C550.358 44.7973 553.251 42.5579 556.055 42.7851L653.653 50.6953C656.456 50.9226 658.706 53.5788 659.492 57.5893L698.053 254.409C698.5 256.692 698.438 259.248 697.876 261.71L642.768 502.984C642.062 506.079 640.617 508.796 638.754 510.531ZM536.397 608.389C532.76 611.779 528.461 611.43 525.782 607.528L449.947 497.066C448.315 494.687 447.472 491.246 447.606 487.504L456.416 242.477C456.523 239.501 457.242 236.51 458.471 233.935L547.412 47.4493C549.569 42.9256 553.014 40.2596 556.351 40.5301L653.949 48.4403C657.287 48.7108 659.965 51.873 660.9 56.6474L699.462 253.467C699.994 256.185 699.92 259.228 699.251 262.159L644.143 503.433C643.302 507.117 641.582 510.351 639.365 512.418L536.397 608.389Z" fill="#3803B1"/>
<path opacity="0.130435" fill-rule="evenodd" clip-rule="evenodd" d="M623.103 517.768L518.525 605.047C515.408 607.649 511.853 607.061 509.738 603.595L438.793 487.316C437.498 485.194 436.892 482.222 437.112 479.062L454.001 235.547C454.176 233.029 454.864 230.541 455.965 228.443L549.768 49.8063C551.694 46.138 554.633 44.1264 557.398 44.5833L653.211 60.4135C655.976 60.8704 658.111 63.7203 658.755 67.8132L690.112 267.129C690.48 269.47 690.331 272.047 689.687 274.487L627.349 510.494C626.54 513.556 625.012 516.175 623.103 517.768ZM519.062 606.998C515.351 610.095 511.12 609.396 508.602 605.269L437.656 488.99C436.115 486.463 435.394 482.926 435.655 479.164L452.545 235.649C452.752 232.652 453.572 229.69 454.883 227.192L548.686 48.5553C550.979 44.1882 554.477 41.7935 557.769 42.3374L653.582 58.1677C656.874 58.7116 659.416 62.1043 660.182 66.9768L691.539 266.293C691.978 269.079 691.8 272.148 691.033 275.052L628.695 511.059C627.733 514.704 625.913 517.822 623.64 519.719L519.062 606.998Z" fill="#3803B1"/>
<path opacity="0.144928" fill-rule="evenodd" clip-rule="evenodd" d="M607.414 524.379L501.565 602.83C498.395 605.179 494.906 604.301 492.932 600.657L426.987 478.959C425.773 476.717 425.272 473.673 425.597 470.505L450.357 229.166C450.617 226.637 451.387 224.18 452.556 222.154L550.849 51.7692C552.883 48.2431 555.858 46.4643 558.578 47.1489L652.359 70.7569C655.078 71.4415 657.094 74.4768 657.595 78.6411L681.797 279.862C682.085 282.255 681.849 284.847 681.124 287.258L611.882 517.399C610.973 520.42 609.364 522.934 607.414 524.379ZM502.027 604.839C498.254 607.636 494.101 606.59 491.75 602.252L425.806 480.555C424.36 477.886 423.764 474.261 424.15 470.49L448.911 229.151C449.22 226.141 450.137 223.216 451.529 220.803L549.821 50.4187C552.243 46.2209 555.785 44.1034 559.023 44.9184L652.804 68.5264C656.041 69.3413 658.441 72.9549 659.037 77.9124L683.24 279.133C683.582 281.982 683.301 285.067 682.438 287.938L613.195 518.079C612.113 521.676 610.198 524.668 607.877 526.388L502.027 604.839Z" fill="#3803B1"/>
<path opacity="0.15942" fill-rule="evenodd" clip-rule="evenodd" d="M591.71 530.362L484.927 599.878C481.715 601.969 478.302 600.805 476.471 596.993L415.625 470.284C414.494 467.928 414.099 464.819 414.53 461.651L446.933 223.134C447.277 220.601 448.128 218.183 449.362 216.234L551.763 54.4724C553.899 51.0984 556.903 49.5568 559.57 50.4665L651.082 81.6894C653.748 82.5991 655.64 85.811 655.997 90.0356L673.114 292.576C673.321 295.016 672.997 297.615 672.192 299.99L596.387 523.699C595.38 526.67 593.696 529.07 591.71 530.362ZM485.314 601.94C481.49 604.43 477.427 603.043 475.248 598.506L414.401 471.797C413.055 468.992 412.585 465.29 413.097 461.519L445.5 223.003C445.91 219.987 446.923 217.108 448.392 214.788L550.794 53.0264C553.336 49.0097 556.913 47.1744 560.087 48.2575L651.599 79.4804C654.773 80.5634 657.025 84.3871 657.45 89.4163L674.568 291.957C674.813 294.861 674.428 297.955 673.47 300.783L597.665 524.491C596.466 528.028 594.461 530.886 592.097 532.425L485.314 601.94Z" fill="#3803B1"/>
<path opacity="0.173913" fill-rule="evenodd" clip-rule="evenodd" d="M576.014 535.718L468.634 596.22C465.389 598.049 462.06 596.603 460.378 592.635L404.71 461.329C403.666 458.865 403.378 455.698 403.913 452.539L443.711 217.47C444.14 214.939 445.07 212.566 446.365 210.702L552.49 57.9C554.721 54.6877 557.745 53.3869 560.351 54.5186L649.366 93.1737C651.972 94.3054 653.735 97.6845 653.947 101.958L664.069 305.24C664.193 307.72 663.783 310.319 662.9 312.653L580.887 529.39C579.785 532.303 578.029 534.583 576.014 535.718ZM468.944 598.329C465.081 600.506 461.117 598.785 459.115 594.061L403.447 462.755C402.204 459.822 401.862 456.051 402.499 452.291L442.296 217.222C442.806 214.209 443.914 211.384 445.456 209.164L551.581 56.3625C554.237 52.5383 557.836 50.9897 560.939 52.3369L649.955 90.9921C653.057 92.3393 655.155 96.362 655.408 101.45L665.53 304.731C665.677 307.684 665.189 310.779 664.138 313.556L582.125 530.294C580.813 533.761 578.723 536.475 576.324 537.827L468.944 598.329Z" fill="#3803B1"/>
<path opacity="0.188406" fill-rule="evenodd" clip-rule="evenodd" d="M560.347 540.448L452.703 591.887C449.435 593.449 446.199 591.728 444.668 587.615L394.245 452.133C393.29 449.567 393.111 446.35 393.75 443.208L440.677 212.19C441.189 209.668 442.197 207.347 443.55 205.573L553.005 62.0349C555.324 58.9932 558.359 57.9362 560.898 59.2859L647.199 105.172C649.738 106.521 651.367 110.058 651.435 114.369L654.669 317.823C654.709 320.338 654.213 322.931 653.254 325.215L565.403 534.475C564.208 537.321 562.386 539.473 560.347 540.448ZM452.935 594.037C449.045 595.896 445.192 593.848 443.37 588.951L392.946 453.469C391.809 450.414 391.597 446.585 392.356 442.844L439.284 211.826C439.894 208.824 441.093 206.061 442.704 203.948L552.159 60.4104C554.92 56.7893 558.533 55.531 561.555 57.1378L647.857 103.023C650.879 104.63 652.818 108.841 652.9 113.973L656.133 317.426C656.181 320.421 655.59 323.508 654.448 326.227L566.598 535.487C565.176 538.875 563.006 541.437 560.579 542.598L452.935 594.037Z" fill="#3803B1"/>
<path opacity="0.202899" fill-rule="evenodd" clip-rule="evenodd" d="M544.73 544.555L437.153 586.912C433.872 588.204 430.737 586.215 429.361 581.969L384.231 442.735C383.368 440.073 383.299 436.815 384.039 433.699L437.814 207.309C438.409 204.803 439.492 202.541 440.9 200.863L553.288 66.8571C555.689 63.9945 558.726 63.1835 561.191 64.7469L644.571 117.643C647.035 119.206 648.527 122.89 648.451 127.228L644.923 330.295C644.879 332.838 644.296 335.418 643.264 337.646L549.955 538.956C548.671 541.727 546.787 543.745 544.73 544.555ZM437.306 589.096C433.4 590.634 429.668 588.266 428.03 583.211L382.9 443.978C381.873 440.808 381.79 436.93 382.671 433.22L436.446 206.83C437.155 203.847 438.444 201.154 440.12 199.156L552.508 65.1503C555.366 61.7425 558.982 60.777 561.916 62.6382L645.296 115.534C648.23 117.396 650.005 121.781 649.916 126.945L646.387 330.012C646.334 333.04 645.641 336.111 644.412 338.764L551.104 540.073C549.575 543.372 547.332 545.775 544.883 546.739L437.306 589.096Z" fill="#3803B1"/>
<path opacity="0.217391" fill-rule="evenodd" clip-rule="evenodd" d="M529.184 548.046L421.999 581.327C418.715 582.347 415.69 580.098 414.47 575.73L374.669 433.174C373.9 430.422 373.941 427.132 374.781 424.049L435.106 202.842C435.783 200.358 436.938 198.162 438.397 196.585L553.32 72.3457C555.795 69.6703 558.826 69.1067 561.209 70.8788L641.471 130.548C643.855 132.32 645.206 136.141 644.987 140.494L634.84 342.626C634.711 345.192 634.044 347.751 632.939 349.917L534.564 542.837C533.194 545.525 531.254 547.403 529.184 548.046ZM422.073 583.539C418.163 584.753 414.561 582.075 413.11 576.876L373.308 434.32C372.393 431.043 372.442 427.126 373.442 423.457L433.767 202.249C434.573 199.293 435.949 196.678 437.685 194.801L552.608 70.5615C555.554 67.3765 559.162 66.7056 562 68.8152L642.262 128.484C645.1 130.594 646.708 135.143 646.448 140.325L636.3 342.457C636.147 345.512 635.353 348.559 634.038 351.137L535.663 544.056C534.031 547.257 531.721 549.493 529.258 550.258L422.073 583.539Z" fill="#3803B1"/>
<path opacity="0.231884" fill-rule="evenodd" clip-rule="evenodd" d="M513.729 550.926L407.256 575.169C403.979 575.915 401.07 573.414 400.01 568.937L365.555 423.489C364.883 420.654 365.034 417.339 365.973 414.299L432.536 198.8C433.294 196.346 434.519 194.222 436.025 192.751L553.081 78.4773C555.622 75.9964 558.638 75.6811 560.935 77.6562L637.894 143.845C640.19 145.82 641.397 149.767 641.037 154.123L624.43 354.788C624.216 357.37 623.465 359.902 622.292 361.999L519.25 546.124C517.796 548.722 515.805 550.453 513.729 550.926ZM407.25 577.402C403.349 578.291 399.886 575.312 398.624 569.983L364.169 424.536C363.369 421.16 363.549 417.214 364.667 413.595L431.229 198.096C432.132 195.174 433.59 192.646 435.384 190.895L552.44 76.6209C555.465 73.6675 559.055 73.2921 561.789 75.6434L638.748 141.832C641.482 144.183 642.919 148.882 642.489 154.068L625.882 354.733C625.628 357.807 624.734 360.821 623.337 363.318L520.295 547.443C518.565 550.535 516.195 552.597 513.723 553.159L407.25 577.402Z" fill="#3803B1"/>
<path opacity="0.246377" fill-rule="evenodd" clip-rule="evenodd" d="M498.385 553.205L392.937 568.474C389.677 568.946 386.892 566.201 385.992 561.628L356.888 413.72C356.315 410.808 356.576 407.478 357.611 404.488L430.086 195.195C430.924 192.777 432.216 190.732 433.766 189.373L552.554 85.2277C555.154 82.9481 558.146 82.881 560.35 85.053L633.833 157.491C636.036 159.663 637.096 163.725 636.595 168.074L613.704 366.752C613.405 369.344 612.572 371.842 611.333 373.864L504.03 548.825C502.498 551.325 500.461 552.905 498.385 553.205ZM392.851 570.722C388.97 571.284 385.656 568.016 384.584 562.572L355.48 414.664C354.798 411.198 355.108 407.233 356.341 403.674L428.816 194.381C429.813 191.502 431.352 189.067 433.196 187.45L551.985 83.3045C555.08 80.5907 558.642 80.5109 561.265 83.0965L634.748 155.535C637.371 158.12 638.633 162.956 638.037 168.133L615.146 366.812C614.79 369.897 613.798 372.871 612.323 375.278L505.02 550.239C503.195 553.214 500.771 555.095 498.3 555.453L392.851 570.722Z" fill="#3803B1"/>
<path opacity="0.26087" fill-rule="evenodd" clip-rule="evenodd" d="M483.171 554.894L379.053 561.279C375.819 561.477 373.166 558.499 372.428 553.842L348.662 403.904C348.19 400.924 348.561 397.586 349.69 394.655L427.741 192.037C428.657 189.661 430.013 187.701 431.602 186.459L551.722 92.5707C554.373 90.4987 557.334 90.6792 559.438 93.0413L629.284 171.445C631.388 173.807 632.3 177.973 631.66 182.302L602.675 378.493C602.292 381.088 601.378 383.545 600.075 385.485L488.925 550.95C487.317 553.344 485.241 554.767 483.171 554.894ZM378.888 563.535C375.039 563.771 371.88 560.226 371.001 554.682L347.236 404.744C346.673 401.196 347.115 397.223 348.459 393.733L426.51 191.115C427.6 188.286 429.215 185.953 431.106 184.475L551.227 90.5863C554.383 88.1196 557.907 88.3345 560.412 91.1465L630.258 169.55C632.763 172.362 633.848 177.321 633.087 182.476L604.102 378.666C603.645 381.755 602.557 384.68 601.006 386.99L489.856 552.455C487.942 555.305 485.47 556.999 483.006 557.15L378.888 563.535Z" fill="#3803B1"/>
<path opacity="0.275362" fill-rule="evenodd" clip-rule="evenodd" d="M468.105 556.003L365.614 553.623C362.416 553.549 359.901 550.347 359.325 545.619L340.873 394.082C340.502 391.039 340.982 387.703 342.202 384.839L425.484 189.333C426.475 187.007 427.892 185.138 429.516 184.018L550.571 100.479C553.265 98.6198 556.184 99.0465 558.184 101.592L624.245 185.663C626.244 188.208 627.006 192.466 626.229 196.766L591.355 389.983C590.887 392.574 589.895 394.983 588.531 396.836L473.951 552.509C472.273 554.79 470.162 556.051 468.105 556.003ZM365.371 555.881C361.564 555.792 358.569 551.981 357.883 546.352L339.431 394.815C338.99 391.193 339.561 387.221 341.014 383.811L424.295 188.306C425.475 185.536 427.163 183.312 429.095 181.978L550.151 98.439C553.358 96.2259 556.833 96.7339 559.214 99.7637L625.274 183.835C627.655 186.865 628.561 191.934 627.637 197.052L592.763 390.269C592.206 393.354 591.024 396.223 589.401 398.428L474.821 554.101C472.823 556.817 470.311 558.318 467.861 558.261L365.371 555.881Z" fill="#3803B1"/>
<path opacity="0.289855" fill-rule="evenodd" clip-rule="evenodd" d="M453.203 556.548L352.629 545.546C349.476 545.201 347.104 541.787 346.691 537L333.512 384.289C333.244 381.193 333.833 377.867 335.141 375.077L423.296 187.092C424.361 184.821 425.836 183.049 427.49 182.054L549.086 108.923C551.815 107.282 554.685 107.953 556.576 110.673L618.715 200.103C620.605 202.823 621.214 207.161 620.304 211.42L579.758 401.197C579.207 403.779 578.137 406.133 576.716 407.892L459.126 553.515C457.381 555.676 455.243 556.771 453.203 556.548ZM352.307 547.798C348.554 547.388 345.73 543.323 345.238 537.625L332.059 384.914C331.741 381.228 332.441 377.268 333.999 373.947L422.153 185.962C423.421 183.258 425.177 181.149 427.146 179.965L548.742 106.834C551.991 104.88 555.408 105.679 557.659 108.917L619.798 198.347C622.048 201.585 622.773 206.749 621.69 211.819L581.144 401.597C580.487 404.67 579.214 407.473 577.523 409.567L459.933 555.189C457.855 557.762 455.309 559.066 452.882 558.8L352.307 547.798Z" fill="#3803B1"/>
<path opacity="0.304348" fill-rule="evenodd" clip-rule="evenodd" d="M438.484 556.542L340.103 537.087C337.005 536.474 334.782 532.859 334.531 528.027L326.571 374.565C326.408 371.422 327.103 368.115 328.497 365.407L421.161 185.318C422.297 183.109 423.826 181.44 425.506 180.575L547.255 117.875C550.01 116.456 552.824 117.368 554.6 120.255L612.695 214.721C614.471 217.608 614.927 222.014 613.886 226.221L567.898 412.112C567.264 414.677 566.119 416.971 564.645 418.631L444.467 553.981C442.66 556.016 440.499 556.941 438.484 556.542ZM339.704 539.328C336.016 538.598 333.369 534.295 333.071 528.543L325.111 375.08C324.916 371.339 325.744 367.401 327.403 364.178L420.067 184.089C421.42 181.459 423.24 179.472 425.24 178.442L546.989 115.742C550.269 114.053 553.619 115.138 555.733 118.576L613.828 213.042C615.942 216.479 616.485 221.724 615.246 226.732L569.258 412.623C568.503 415.677 567.14 418.407 565.385 420.384L445.207 555.733C443.056 558.156 440.484 559.258 438.085 558.783L339.704 539.328Z" fill="#3803B1"/>
<path opacity="0.318841" fill-rule="evenodd" clip-rule="evenodd" d="M423.963 556.003L328.042 528.287C325.008 527.411 322.939 523.606 322.85 518.742L320.041 364.946C319.983 361.764 320.784 358.484 322.259 355.865L419.062 184.015C420.268 181.875 421.847 180.315 423.548 179.583L545.067 127.302C547.84 126.109 550.59 127.258 552.246 130.304L606.188 229.474C607.845 232.52 608.148 236.981 606.979 241.126L555.79 422.705C555.073 425.247 553.856 427.473 552.333 429.029L429.988 553.922C428.124 555.825 425.947 556.577 423.963 556.003ZM327.567 530.51C323.955 529.466 321.491 524.937 321.386 519.146L318.576 365.35C318.507 361.562 319.461 357.657 321.217 354.54L418.02 182.69C419.456 180.142 421.335 178.284 423.361 177.413L544.88 125.132C548.181 123.711 551.454 125.08 553.426 128.706L607.368 227.876C609.341 231.502 609.701 236.813 608.31 241.747L557.121 423.327C556.268 426.353 554.819 429.003 553.005 430.855L430.66 555.748C428.441 558.013 425.85 558.908 423.488 558.225L327.567 530.51Z" fill="#3803B1"/>
<path opacity="0.333333" fill-rule="evenodd" clip-rule="evenodd" d="M409.654 554.948L316.449 519.188C313.488 518.052 311.577 514.071 311.649 509.187L313.91 355.467C313.957 352.254 314.863 349.01 316.415 346.488L416.982 183.187C418.255 181.121 419.88 179.674 421.597 179.079L542.511 137.173C545.295 136.208 547.972 137.591 549.505 140.786L599.198 244.32C600.731 247.514 600.881 252.02 599.588 256.091L543.449 432.955C542.652 435.467 541.365 437.619 539.795 439.065L415.704 553.355C413.788 555.12 411.602 555.695 409.654 554.948ZM315.899 521.385C312.374 520.032 310.099 515.293 310.184 509.479L312.446 355.759C312.502 351.934 313.579 348.072 315.428 345.07L415.995 181.769C417.51 179.309 419.445 177.587 421.489 176.879L542.403 134.972C545.717 133.824 548.903 135.47 550.729 139.273L600.422 242.807C602.247 246.611 602.425 251.974 600.887 256.821L544.748 433.685C543.798 436.676 542.266 439.237 540.397 440.959L416.307 555.249C414.026 557.35 411.423 558.035 409.104 557.145L315.899 521.385Z" fill="#3803B1"/>
<path opacity="0.347826" fill-rule="evenodd" clip-rule="evenodd" d="M395.572 553.396L305.326 509.83C302.446 508.44 300.698 504.295 300.929 499.404L308.167 346.164C308.32 342.928 309.327 339.728 310.954 337.31L414.905 182.834C416.242 180.849 417.909 179.521 419.638 179.065L539.58 147.455C542.366 146.721 544.962 148.332 546.369 151.667L591.73 259.215C593.136 262.549 593.133 267.086 591.72 271.075L530.892 442.841C530.015 445.317 528.661 447.388 527.049 448.72L401.63 552.298C399.667 553.919 397.477 554.316 395.572 553.396ZM304.703 511.996C301.274 510.34 299.193 505.406 299.468 499.583L306.706 346.343C306.888 342.491 308.087 338.682 310.024 335.804L413.975 181.327C415.566 178.964 417.551 177.383 419.609 176.84L539.552 145.23C542.867 144.356 545.959 146.274 547.633 150.244L592.994 257.792C594.669 261.762 594.664 267.163 592.983 271.911L532.155 443.678C531.111 446.626 529.499 449.091 527.58 450.676L402.161 554.254C399.824 556.184 397.217 556.656 394.948 555.561L304.703 511.996Z" fill="#3803B1"/>
<path opacity="0.362319" fill-rule="evenodd" clip-rule="evenodd" d="M381.729 551.366L294.673 500.255C291.882 498.617 290.3 494.321 290.688 489.436L302.798 337.071C303.056 333.82 304.163 330.672 305.86 328.365L412.815 182.957C414.212 181.057 415.917 179.853 417.653 179.539L536.267 158.115C539.045 157.613 541.555 159.447 542.831 162.912L583.791 274.118C585.067 277.582 584.911 282.138 583.383 286.034L518.135 452.345C517.18 454.778 515.762 456.763 514.112 457.975L387.778 550.769C385.774 552.241 383.587 552.457 381.729 551.366ZM293.979 502.382C290.656 500.432 288.772 495.318 289.235 489.503L301.344 337.137C301.652 333.267 302.97 329.52 304.99 326.774L411.944 181.365C413.607 179.104 415.637 177.67 417.704 177.297L536.318 155.873C539.625 155.275 542.613 157.459 544.132 161.583L585.092 272.789C586.612 276.913 586.426 282.337 584.606 286.975L519.358 453.286C518.221 456.183 516.533 458.545 514.569 459.988L388.235 552.782C385.849 554.535 383.246 554.792 381.034 553.494L293.979 502.382Z" fill="#3803B1"/>
<path opacity="0.376812" fill-rule="evenodd" clip-rule="evenodd" d="M368.138 548.882L284.489 490.505C281.796 488.625 280.382 484.192 280.925 479.326L297.789 328.22C298.152 324.962 299.357 321.876 301.12 319.686L410.694 183.553C412.149 181.746 413.887 180.669 415.625 180.5L532.564 169.12C535.327 168.851 537.743 170.901 538.886 174.486L575.39 288.987C576.533 292.571 576.226 297.134 574.586 300.927L505.194 461.448C504.163 463.833 502.684 465.725 501 466.813L374.16 548.788C372.119 550.106 369.942 550.14 368.138 548.882ZM283.725 492.587C280.518 490.349 278.836 485.072 279.482 479.279L296.346 328.173C296.779 324.295 298.213 320.621 300.311 318.014L409.885 181.881C411.617 179.73 413.687 178.448 415.755 178.247L532.695 166.866C535.984 166.546 538.86 168.987 540.221 173.254L576.725 287.755C578.085 292.023 577.72 297.455 575.768 301.97L506.375 462.491C505.148 465.331 503.388 467.583 501.383 468.878L374.543 550.853C372.114 552.422 369.521 552.463 367.374 550.965L283.725 492.587Z" fill="#3803B1"/>
<path opacity="0.391304" fill-rule="evenodd" clip-rule="evenodd" d="M354.81 545.964L274.771 480.62C272.182 478.506 270.94 473.95 271.636 469.115L293.125 319.643C293.593 316.386 294.892 313.369 296.716 311.303L408.528 184.621C410.037 182.911 411.804 181.967 413.538 181.944L528.469 180.434C531.209 180.398 533.524 182.658 534.531 186.352L566.537 303.782C567.544 307.476 567.087 312.033 565.341 315.714L492.088 470.136C490.982 472.466 489.446 474.26 487.733 475.22L360.787 546.376C358.716 547.536 356.554 547.387 354.81 545.964ZM273.94 482.652C270.858 480.135 269.379 474.711 270.207 468.955L291.696 319.483C292.254 315.607 293.8 312.015 295.972 309.555L407.783 182.873C409.58 180.837 411.684 179.713 413.748 179.686L528.679 178.176C531.941 178.133 534.697 180.824 535.895 185.221L567.902 302.651C569.1 307.049 568.556 312.474 566.477 316.856L493.224 471.278C491.908 474.052 490.079 476.187 488.04 477.33L361.094 548.486C358.629 549.868 356.055 549.69 353.979 547.996L273.94 482.652Z" fill="#3803B1"/>
<path opacity="0.405797" fill-rule="evenodd" clip-rule="evenodd" d="M341.755 542.635L265.515 470.641C263.038 468.302 261.969 463.637 262.813 458.845L288.789 311.371C289.361 308.123 290.752 305.183 292.633 303.246L406.3 186.155C407.86 184.548 409.652 183.74 411.378 183.865L523.978 192.024C526.686 192.22 528.894 194.682 529.763 198.475L557.244 318.463C558.112 322.255 557.507 326.795 555.66 330.355L478.833 478.394C477.656 480.662 476.065 482.352 474.327 483.18L347.67 543.554C345.575 544.553 343.434 544.22 341.755 542.635ZM264.619 472.617C261.67 469.832 260.398 464.277 261.403 458.573L287.379 311.099C288.06 307.233 289.716 303.733 291.954 301.426L405.622 184.336C407.479 182.423 409.612 181.461 411.667 181.61L524.267 189.768C527.491 190.001 530.12 192.933 531.154 197.448L558.634 317.436C559.668 321.951 558.948 327.355 556.749 331.594L479.922 479.632C478.52 482.333 476.627 484.344 474.558 485.33L347.901 545.704C345.406 546.893 342.858 546.498 340.859 544.61L264.619 472.617Z" fill="#3803B1"/>
<path opacity="0.42029" fill-rule="evenodd" clip-rule="evenodd" d="M328.982 538.92L256.714 460.61C254.356 458.054 253.462 453.294 254.451 448.557L284.766 303.431C285.44 300.202 286.92 297.346 288.852 295.544L403.997 188.151C405.604 186.652 407.416 185.984 409.128 186.258L519.089 203.854C521.757 204.281 523.853 206.937 524.581 210.817L547.521 332.991C548.25 336.871 547.5 341.381 545.556 344.812L465.448 486.208C464.201 488.409 462.56 489.989 460.802 490.682L334.817 540.346C332.703 541.179 330.591 540.663 328.982 538.92ZM255.756 462.522C252.948 459.48 251.884 453.812 253.062 448.174L283.376 303.048C284.18 299.203 285.941 295.804 288.241 293.658L403.386 186.265C405.299 184.481 407.456 183.685 409.494 184.011L519.455 201.607C522.632 202.116 525.127 205.278 525.994 209.897L548.934 332.071C549.801 336.69 548.909 342.059 546.594 346.144L466.486 487.539C465.002 490.16 463.048 492.041 460.955 492.866L334.971 542.529C332.454 543.522 329.939 542.907 328.024 540.833L255.756 462.522Z" fill="#3803B1"/>
<path opacity="0.434783" fill-rule="evenodd" clip-rule="evenodd" d="M316.499 534.844L248.362 450.566C246.129 447.803 245.41 442.962 246.541 438.293L281.035 295.853C281.811 292.649 283.376 289.886 285.355 288.224L401.603 190.602C403.253 189.216 405.08 188.69 406.773 189.114L513.802 215.89C516.423 216.545 518.4 219.388 518.987 223.344L537.385 347.329C537.972 351.285 537.08 355.754 535.045 359.048L451.951 493.567C450.636 495.695 448.949 497.16 447.175 497.715L322.238 536.774C320.11 537.439 318.032 536.74 316.499 534.844ZM247.345 452.41C244.686 449.12 243.831 443.357 245.177 437.798L279.671 295.359C280.595 291.544 282.457 288.255 284.814 286.276L401.061 188.655C403.026 187.005 405.201 186.379 407.216 186.883L514.245 213.659C517.365 214.439 519.719 217.823 520.418 222.533L538.816 346.518C539.515 351.228 538.453 356.547 536.03 360.469L452.936 494.988C451.371 497.521 449.363 499.266 447.251 499.926L322.313 538.985C319.78 539.777 317.307 538.945 315.482 536.688L247.345 452.41Z" fill="#3803B1"/>
<path opacity="0.449275" fill-rule="evenodd" clip-rule="evenodd" d="M304.313 530.431L240.45 440.548C238.348 437.588 237.805 432.681 239.073 428.09L277.581 288.661C278.456 285.49 280.102 282.827 282.123 281.31L399.104 193.5C400.794 192.232 402.631 191.852 404.3 192.425L508.117 228.097C510.683 228.978 512.536 231.997 512.981 236.018L526.849 361.44C527.294 365.461 526.262 369.876 524.142 373.025L438.359 500.461C436.98 502.51 435.25 503.856 433.466 504.269L309.938 532.862C307.803 533.356 305.766 532.475 304.313 530.431ZM239.377 442.317C236.874 438.794 236.228 432.952 237.737 427.487L276.245 288.058C277.287 284.283 279.246 281.113 281.653 279.306L398.633 191.497C400.645 189.986 402.832 189.534 404.819 190.216L508.636 225.888C511.691 226.938 513.897 230.531 514.427 235.318L528.295 360.74C528.824 365.528 527.596 370.783 525.072 374.533L439.289 501.968C437.648 504.407 435.588 506.009 433.464 506.501L309.935 535.094C307.394 535.682 304.969 534.634 303.24 532.201L239.377 442.317Z" fill="#3803B1"/>
<path opacity="0.463768" fill-rule="evenodd" clip-rule="evenodd" d="M292.43 525.708L232.969 430.594C231.002 427.449 230.635 422.491 232.036 417.989L274.382 281.88C275.355 278.751 277.078 276.195 279.137 274.827L396.487 196.836C398.212 195.689 400.054 195.458 401.694 196.181L502.038 240.44C504.541 241.544 506.266 244.729 506.567 248.804L515.93 375.289C516.231 379.364 515.064 383.714 512.865 386.711L424.692 506.882C423.252 508.846 421.483 510.068 419.693 510.337L297.924 528.634C295.788 528.955 293.797 527.895 292.43 525.708ZM231.842 432.284C229.501 428.54 229.064 422.637 230.731 417.278L273.077 281.169C274.237 277.443 276.288 274.401 278.738 272.772L396.088 194.782C398.142 193.416 400.335 193.14 402.287 194.001L502.631 238.26C505.611 239.574 507.664 243.366 508.023 248.217L517.386 374.703C517.745 379.554 516.355 384.732 513.737 388.301L425.564 508.471C423.849 510.809 421.744 512.264 419.612 512.584L297.844 530.881C295.301 531.263 292.931 530.001 291.304 527.398L231.842 432.284Z" fill="#3803B1"/>
<path opacity="0.478261" fill-rule="evenodd" clip-rule="evenodd" d="M280.855 520.7L225.906 420.743C224.081 417.423 223.888 412.428 225.416 408.027L271.419 275.532C272.488 272.452 274.285 270.01 276.374 268.796L393.738 200.6C395.495 199.579 397.337 199.498 398.942 200.37L495.567 252.885C497.999 254.207 499.591 257.549 499.75 261.665L504.644 388.843C504.803 392.96 503.504 397.233 501.232 400.072L410.968 512.823C409.468 514.696 407.665 515.79 405.874 515.912L286.201 524.116C284.07 524.262 282.133 523.024 280.855 520.7ZM224.73 422.348C222.557 418.396 222.328 412.45 224.147 407.211L270.149 274.716C271.423 271.049 273.561 268.142 276.049 266.696L393.413 198.5C395.504 197.285 397.697 197.188 399.607 198.226L496.232 250.741C499.128 252.315 501.023 256.293 501.212 261.194L506.107 388.372C506.295 393.273 504.749 398.36 502.044 401.739L411.78 514.491C409.995 516.72 407.849 518.022 405.716 518.168L286.043 526.372C283.507 526.546 281.2 525.072 279.679 522.305L224.73 422.348Z" fill="#3803B1"/>
<path opacity="0.492754" fill-rule="evenodd" clip-rule="evenodd" d="M269.592 515.435L219.25 411.031C217.57 407.548 217.552 402.531 219.202 398.241L268.672 269.639C269.835 266.616 271.7 264.295 273.816 263.238L390.846 204.78C392.63 203.889 394.466 203.96 396.032 204.981L488.709 265.398C491.063 266.933 492.519 270.421 492.534 274.567L493.011 402.07C493.027 406.217 491.6 410.403 489.261 413.076L397.204 518.279C395.649 520.056 393.816 521.017 392.029 520.991L274.774 519.333C272.654 519.303 270.775 517.889 269.592 515.435ZM218.027 412.546C216.028 408.4 216.006 402.428 217.97 397.321L267.441 268.718C268.825 265.119 271.046 262.356 273.565 261.098L390.594 202.641C392.718 201.58 394.904 201.664 396.768 202.879L489.445 263.296C492.248 265.124 493.98 269.276 493.999 274.212L494.476 401.715C494.494 406.651 492.796 411.635 490.012 414.817L397.954 520.02C396.103 522.136 393.921 523.279 391.793 523.249L274.539 521.591C272.015 521.555 269.778 519.873 268.369 516.951L218.027 412.546Z" fill="#3803B1"/>
<path opacity="0.507246" fill-rule="evenodd" clip-rule="evenodd" d="M258.643 509.939L212.987 401.492C211.457 397.859 211.61 392.835 213.377 388.665L266.12 264.218C267.374 261.26 269.304 259.066 271.44 258.169L387.798 209.365C389.604 208.607 391.431 208.832 392.952 209.999L481.469 277.945C483.74 279.688 485.054 283.311 484.927 287.475L481.049 414.939C480.922 419.104 479.373 423.192 476.973 425.694L383.419 523.246C381.812 524.922 379.953 525.746 378.175 525.571L263.646 514.309C261.543 514.103 259.728 512.517 258.643 509.939ZM211.722 402.913C209.901 398.588 210.083 392.607 212.186 387.644L264.93 263.196C266.422 259.674 268.72 257.062 271.263 255.995L387.62 207.191C389.771 206.289 391.945 206.556 393.756 207.946L482.274 275.892C484.976 277.967 486.542 282.279 486.391 287.237L482.512 414.701C482.361 419.659 480.517 424.526 477.66 427.505L384.106 525.056C382.192 527.052 379.98 528.033 377.863 527.824L263.334 516.563C260.83 516.317 258.67 514.43 257.378 511.36L211.722 402.913Z" fill="#3803B1"/>
<path opacity="0.521739" fill-rule="evenodd" clip-rule="evenodd" d="M248.01 504.24L207.102 392.162C205.726 388.391 206.048 383.374 207.926 379.335L263.742 259.288C265.084 256.402 267.074 254.341 269.225 253.608L384.583 214.341C386.408 213.719 388.218 214.099 389.69 215.412L473.855 290.494C476.035 292.438 477.206 296.185 476.938 300.356L468.777 427.422C468.509 431.593 466.842 435.573 464.388 437.899L369.632 527.721C367.975 529.291 366.096 529.975 364.332 529.65L252.818 509.072C250.738 508.688 248.994 506.935 248.01 504.24ZM205.799 393.484C204.16 388.995 204.544 383.023 206.779 378.214L262.595 258.167C264.193 254.731 266.562 252.278 269.123 251.406L384.48 212.138C386.653 211.398 388.809 211.851 390.56 213.413L474.726 288.496C477.32 290.81 478.714 295.27 478.395 300.236L470.235 427.302C469.916 432.267 467.931 437.006 465.01 439.775L370.253 529.597C368.281 531.466 366.044 532.28 363.944 531.893L252.43 511.315C249.954 510.858 247.877 508.771 246.706 505.563L205.799 393.484Z" fill="#3803B1"/>
<path opacity="0.536232" fill-rule="evenodd" clip-rule="evenodd" d="M237.694 498.364L201.581 383.072C200.36 379.176 200.849 374.181 202.832 370.281L261.516 254.863C262.944 252.056 264.988 250.134 267.15 249.568L381.19 219.693C383.029 219.211 384.819 219.747 386.236 221.202L465.875 303.012C467.957 305.151 468.982 309.01 468.574 313.176L456.217 439.491C455.809 443.657 454.029 447.519 451.528 449.664L355.859 531.705C354.157 533.165 352.261 533.705 350.517 533.228L242.293 503.646C240.242 503.086 238.573 501.169 237.694 498.364ZM200.242 384.292C198.79 379.654 199.371 373.707 201.732 369.065L260.416 253.647C262.115 250.305 264.55 248.017 267.122 247.343L381.163 217.468C383.352 216.894 385.483 217.532 387.17 219.264L466.809 301.075C469.288 303.621 470.508 308.214 470.022 313.174L457.665 439.489C457.179 444.448 455.06 449.046 452.083 451.599L356.414 533.641C354.388 535.379 352.131 536.022 350.054 535.454L241.83 505.872C239.388 505.205 237.401 502.922 236.356 499.584L200.242 384.292Z" fill="#3803B1"/>
<path opacity="0.550725" fill-rule="evenodd" clip-rule="evenodd" d="M227.695 492.34L196.406 374.254C195.344 370.247 195.996 365.288 198.077 361.536L259.421 250.958C260.931 248.237 263.025 246.459 265.191 246.062L377.611 225.407C379.459 225.068 381.223 225.759 382.58 227.355L457.538 315.469C459.516 317.795 460.392 321.753 459.847 325.902L443.389 451.121C442.844 455.271 440.956 459.005 438.414 460.964L342.119 535.199C340.375 536.543 338.468 536.937 336.747 536.308L232.069 498.058C230.053 497.321 228.465 495.245 227.695 492.34ZM195.037 375.367C193.773 370.597 194.549 364.693 197.027 360.226L258.371 249.648C260.167 246.409 262.661 244.293 265.239 243.82L377.659 223.165C379.859 222.761 381.959 223.584 383.575 225.484L458.532 313.598C460.888 316.367 461.931 321.079 461.282 326.018L444.823 451.238C444.174 456.177 441.927 460.623 438.901 462.955L342.606 537.19C340.53 538.79 338.26 539.259 336.211 538.51L231.533 500.26C229.133 499.383 227.243 496.912 226.326 493.453L195.037 375.367Z" fill="#3803B1"/>
<path opacity="0.565217" fill-rule="evenodd" clip-rule="evenodd" d="M218.012 486.193L191.56 365.738C190.658 361.633 191.47 356.724 193.643 353.127L257.435 247.582C259.023 244.955 261.163 243.327 263.326 243.099L373.835 231.467C375.687 231.272 377.42 232.119 378.713 233.852L448.853 327.833C450.723 330.338 451.448 334.384 450.768 338.504L430.316 462.291C429.635 466.411 427.646 470.009 425.07 471.779L328.428 538.204C326.646 539.429 324.733 539.673 323.041 538.893L222.148 492.333C220.172 491.422 218.67 489.191 218.012 486.193ZM190.164 366.741C189.091 361.855 190.057 356.01 192.644 351.729L256.436 246.183C258.327 243.056 260.874 241.117 263.449 240.846L373.958 229.214C376.163 228.982 378.226 229.991 379.766 232.054L449.905 326.034C452.131 329.016 452.995 333.833 452.185 338.738L431.733 462.525C430.922 467.43 428.555 471.713 425.488 473.821L328.846 540.246C326.725 541.703 324.447 541.995 322.433 541.066L221.54 494.506C219.188 493.421 217.4 490.766 216.616 487.196L190.164 366.741Z" fill="#3803B1"/>
<path opacity="0.57971" fill-rule="evenodd" clip-rule="evenodd" d="M208.642 479.951L187.025 357.551C186.285 353.364 187.252 348.517 189.511 345.084L255.536 244.747C257.199 242.22 259.379 240.745 261.535 240.689L369.854 237.856C371.706 237.808 373.403 238.811 374.627 240.677L439.832 340.075C441.587 342.75 442.162 346.871 441.348 350.952L417.019 472.978C416.205 477.058 414.121 480.51 411.518 482.088L314.804 540.726C312.988 541.827 311.073 541.92 309.416 540.988L212.526 486.497C210.598 485.412 209.186 483.034 208.642 479.951ZM185.607 358.441C184.726 353.456 185.876 347.686 188.566 343.599L254.592 243.262C256.571 240.254 259.166 238.498 261.732 238.431L370.052 235.599C372.257 235.541 374.277 236.735 375.734 238.956L440.939 338.354C443.029 341.539 443.712 346.445 442.744 351.303L418.415 473.329C417.446 478.187 414.965 482.296 411.866 484.175L315.152 542.812C312.99 544.123 310.71 544.234 308.738 543.125L211.848 488.634C209.552 487.342 207.872 484.511 207.224 480.841L185.607 358.441Z" fill="#3803B1"/>
<path opacity="0.594203" fill-rule="evenodd" clip-rule="evenodd" d="M199.582 473.641L182.782 349.721C182.204 345.464 183.321 340.694 185.659 337.431L253.702 242.459C255.436 240.038 257.65 238.722 259.793 238.838L365.66 244.557C367.508 244.657 369.163 245.814 370.314 247.81L430.487 352.167C432.123 355.003 432.545 359.187 431.601 363.216L403.521 483.163C402.578 487.192 400.405 490.49 397.781 491.874L301.263 542.769C299.417 543.742 297.505 543.682 295.888 542.6L203.202 480.575C201.326 479.32 200.01 476.799 199.582 473.641ZM181.345 350.495C180.658 345.427 181.988 339.748 184.77 335.864L252.814 240.892C254.878 238.01 257.514 236.444 260.065 236.581L365.932 242.301C368.131 242.42 370.102 243.797 371.472 246.173L431.645 350.529C433.593 353.907 434.095 358.887 432.972 363.684L404.892 483.63C403.769 488.427 401.182 492.353 398.058 494L301.54 544.895C299.343 546.054 297.066 545.983 295.141 544.694L202.455 482.67C200.222 481.175 198.655 478.175 198.145 474.415L181.345 350.495Z" fill="#3803B1"/>
<path opacity="0.608696" fill-rule="evenodd" clip-rule="evenodd" d="M190.828 467.289L178.811 342.272C178.396 337.96 179.658 333.279 182.068 330.193L251.912 240.724C253.713 238.416 255.956 237.263 258.08 237.551L361.247 251.553C363.085 251.802 364.694 253.112 365.767 255.234L420.83 364.081C422.342 367.069 422.611 371.302 421.541 375.269L389.846 492.829C388.777 496.796 386.521 499.933 383.884 501.119L287.822 544.34C285.95 545.183 284.045 544.967 282.472 543.736L194.172 474.592C192.354 473.169 191.138 470.513 190.828 467.289ZM177.361 342.927C176.867 337.794 178.37 332.221 181.238 328.547L251.082 239.078C253.226 236.331 255.896 234.958 258.425 235.301L361.593 249.303C363.78 249.6 365.696 251.16 366.973 253.685L422.036 362.532C423.836 366.09 424.156 371.129 422.883 375.852L391.188 493.412C389.915 498.135 387.229 501.868 384.089 503.281L288.027 546.502C285.799 547.505 283.532 547.249 281.659 545.782L193.359 476.639C191.194 474.944 189.747 471.783 189.378 467.945L177.361 342.927Z" fill="#3803B1"/>
<path opacity="0.623188" fill-rule="evenodd" clip-rule="evenodd" d="M182.375 460.921L175.092 335.226C174.84 330.873 176.242 326.294 178.716 323.39L250.143 239.545C252.007 237.357 254.273 236.369 256.373 236.83L356.609 258.823C358.432 259.223 359.989 260.685 360.98 262.927L410.875 375.791C412.259 378.921 412.375 383.191 411.183 387.085L376.017 501.962C374.825 505.856 372.493 508.824 369.849 509.812L274.495 545.449C272.601 546.157 270.709 545.785 269.186 544.406L185.432 468.574C183.677 466.985 182.565 464.201 182.375 460.921ZM173.633 335.761C173.333 330.579 175.002 325.127 177.946 321.671L249.373 237.825C251.593 235.22 254.291 234.044 256.791 234.593L357.026 256.586C359.196 257.062 361.051 258.803 362.23 261.472L412.125 374.336C413.773 378.062 413.911 383.145 412.492 387.781L377.326 502.658C375.907 507.294 373.131 510.827 369.983 512.003L274.629 547.64C272.374 548.483 270.122 548.04 268.309 546.399L184.554 470.566C182.466 468.675 181.142 465.361 180.916 461.455L173.633 335.761Z" fill="#3803B1"/>
<path opacity="0.637681" fill-rule="evenodd" clip-rule="evenodd" d="M174.218 454.561L171.605 328.605C171.515 324.226 173.05 319.76 175.581 317.044L248.374 238.925C250.297 236.861 252.581 236.042 254.651 236.675L351.739 266.35C353.543 266.901 355.043 268.513 355.948 270.87L400.636 387.273C401.888 390.534 401.852 394.827 400.542 398.638L362.057 510.548C360.746 514.359 358.345 517.151 355.7 517.94L261.297 546.104C259.385 546.674 257.512 546.145 256.043 544.621L176.976 462.544C175.291 460.794 174.287 457.889 174.218 454.561ZM170.141 329.017C170.033 323.804 171.861 318.488 174.874 315.255L247.667 237.135C249.956 234.678 252.676 233.703 255.14 234.457L352.228 264.132C354.375 264.788 356.162 266.707 357.239 269.513L401.927 385.916C403.417 389.798 403.375 394.909 401.815 399.445L363.329 511.356C361.769 515.892 358.911 519.216 355.763 520.155L261.359 548.319C259.083 548.998 256.853 548.369 255.105 546.554L176.038 464.476C174.031 462.393 172.836 458.935 172.754 454.974L170.141 329.017Z" fill="#3803B1"/>
<path opacity="0.652174" fill-rule="evenodd" clip-rule="evenodd" d="M166.349 448.236L168.329 322.427C168.398 318.036 170.062 313.696 172.642 311.172L246.584 238.863C248.562 236.929 250.858 236.282 252.893 237.085L346.633 274.114C348.413 274.817 349.852 276.575 350.667 279.042L390.128 398.503C391.244 401.884 391.058 406.188 389.634 409.905L347.989 518.577C346.565 522.294 344.101 524.905 341.463 525.494L248.244 546.317C246.319 546.747 244.468 546.06 243.059 544.392L168.8 456.525C167.189 454.618 166.296 451.6 166.349 448.236ZM166.865 322.716C166.947 317.489 168.927 312.322 171.999 309.317L245.941 237.007C248.295 234.705 251.029 233.935 253.451 234.891L347.192 271.92C349.311 272.757 351.024 274.851 351.994 277.787L391.455 397.249C392.784 401.273 392.562 406.397 390.867 410.821L349.222 519.494C347.526 523.919 344.594 527.027 341.453 527.728L248.234 548.551C245.942 549.063 243.739 548.245 242.061 546.26L167.803 458.393C165.884 456.122 164.822 452.53 164.885 448.524L166.865 322.716Z" fill="#3803B1"/>
<path opacity="0.666667" fill-rule="evenodd" clip-rule="evenodd" d="M158.762 441.968L165.242 316.711C165.469 312.322 167.254 308.118 169.877 305.791L244.753 239.356C246.78 237.557 249.083 237.084 251.077 238.058L341.288 282.095C343.039 282.95 344.412 284.852 345.133 287.423L379.366 409.46C380.344 412.95 380.009 417.251 378.475 420.864L333.837 526.041C332.304 529.654 329.785 532.078 327.16 532.468L235.348 546.1C233.414 546.387 231.592 545.542 230.246 543.734L160.896 450.542C159.364 448.482 158.587 445.36 158.762 441.968ZM163.782 316.874C164.052 311.65 166.177 306.645 169.3 303.874L244.175 237.44C246.589 235.298 249.331 234.735 251.704 235.894L341.915 279.931C343.999 280.949 345.634 283.214 346.492 286.275L380.725 408.311C381.89 412.466 381.491 417.586 379.665 421.887L335.027 527.064C333.202 531.366 330.203 534.251 327.078 534.715L235.266 548.348C232.964 548.69 230.794 547.684 229.192 545.531L159.843 452.338C158.018 449.887 157.093 446.17 157.302 442.132L163.782 316.874Z" fill="#3803B1"/>
<path opacity="0.681159" fill-rule="evenodd" clip-rule="evenodd" d="M151.448 435.782L162.323 311.47C162.706 307.098 164.604 303.041 167.262 300.913L242.859 240.401C244.932 238.742 247.236 238.445 249.183 239.586L335.7 290.273C337.417 291.279 338.719 293.323 339.343 295.991L368.366 420.122C369.204 423.709 368.721 427.994 367.084 431.494L319.624 532.933C317.987 536.432 315.421 538.664 312.815 538.855L222.623 545.467C220.684 545.609 218.895 544.606 217.618 542.66L153.258 444.616C151.809 442.409 151.15 439.19 151.448 435.782ZM160.872 311.508C161.327 306.304 163.587 301.473 166.752 298.94L242.348 238.429C244.816 236.454 247.559 236.1 249.877 237.459L336.394 288.145C338.438 289.343 339.988 291.776 340.731 294.952L369.753 419.084C370.752 423.353 370.176 428.455 368.227 432.621L320.768 534.06C318.819 538.226 315.764 540.883 312.662 541.111L222.47 547.723C220.161 547.892 218.032 546.698 216.511 544.381L152.151 446.336C150.427 443.709 149.642 439.878 149.997 435.821L160.872 311.508Z" fill="#3803B1"/>
<path opacity="0.695652" fill-rule="evenodd" clip-rule="evenodd" d="M144.398 429.7L159.55 306.718C160.085 302.377 162.09 298.476 164.776 296.55L240.883 241.992C242.996 240.478 245.296 240.358 247.192 241.665L329.867 298.628C331.545 299.784 332.772 301.965 333.295 304.724L357.144 430.471C357.84 434.143 357.212 438.4 355.476 441.777L305.374 539.248C303.638 542.625 301.032 544.661 298.452 544.655L210.081 544.432C208.142 544.428 206.391 543.267 205.187 541.187L145.877 438.769C144.517 436.42 143.978 433.115 144.398 429.7ZM158.112 306.631C158.748 301.463 161.135 296.819 164.333 294.526L240.441 239.968C242.956 238.165 245.693 238.023 247.95 239.578L330.626 296.541C332.624 297.918 334.084 300.515 334.707 303.799L358.556 429.546C359.384 433.917 358.637 438.985 356.57 443.005L306.468 540.476C304.402 544.497 301.299 546.92 298.227 546.913L209.857 546.69C207.548 546.685 205.464 545.303 204.031 542.827L144.72 440.408C143.101 437.612 142.459 433.678 142.96 429.613L158.112 306.631Z" fill="#3803B1"/>
<path opacity="0.710145" fill-rule="evenodd" clip-rule="evenodd" d="M137.604 423.744L156.901 302.466C157.584 298.17 159.689 294.434 162.396 292.713L238.807 244.121C240.955 242.755 243.244 242.814 245.083 244.283L323.787 307.139C325.422 308.445 326.568 310.759 326.988 313.602L345.717 440.49C346.27 444.233 345.5 448.449 343.671 451.695L291.11 544.985C289.281 548.231 286.641 550.067 284.093 549.865L197.734 543.012C195.799 542.858 194.091 541.541 192.965 539.332L138.744 433.022C137.477 430.537 137.061 427.154 137.604 423.744ZM155.48 302.253C156.294 297.139 158.8 292.692 162.022 290.643L238.433 242.051C240.991 240.424 243.715 240.495 245.905 242.244L324.609 305.099C326.555 306.654 327.92 309.409 328.42 312.793L347.149 439.681C347.807 444.138 346.89 449.157 344.713 453.021L292.151 546.311C289.974 550.175 286.831 552.361 283.798 552.12L197.439 545.267C195.136 545.084 193.103 543.516 191.762 540.886L137.541 434.576C136.033 431.618 135.538 427.591 136.183 423.531L155.48 302.253Z" fill="#3803B1"/>
<path opacity="0.724638" fill-rule="evenodd" clip-rule="evenodd" d="M131.054 417.935L154.354 298.723C155.182 294.486 157.379 290.924 160.098 289.409L236.61 246.779C238.789 245.565 241.061 245.803 242.839 247.432L317.46 315.785C319.047 317.24 320.109 319.683 320.422 322.602L334.103 450.161C334.511 453.965 333.603 458.127 331.687 461.234L276.853 550.145C274.937 553.251 272.272 554.884 269.762 554.488L185.592 541.223C183.666 540.919 182.007 539.446 180.962 537.112L131.852 427.394C130.681 424.78 130.391 421.329 131.054 417.935ZM152.956 298.385C153.942 293.34 156.556 289.101 159.794 287.297L236.306 244.667C238.9 243.222 241.605 243.505 243.722 245.444L318.342 313.798C320.232 315.529 321.496 318.437 321.868 321.912L335.55 449.472C336.035 454 334.954 458.955 332.673 462.653L277.84 551.564C275.559 555.262 272.385 557.206 269.397 556.735L185.228 543.47C182.935 543.108 180.959 541.354 179.715 538.576L130.605 428.858C129.212 425.746 128.866 421.638 129.656 417.597L152.956 298.385Z" fill="#3803B1"/>
<path opacity="0.73913" fill-rule="evenodd" clip-rule="evenodd" d="M124.738 412.292L151.888 295.497C152.856 291.331 155.136 287.951 157.862 286.643L234.276 249.954C236.48 248.896 238.73 249.313 240.442 251.098L310.885 324.547C312.42 326.148 313.392 328.714 313.596 331.702L322.318 459.472C322.581 463.323 321.538 467.419 319.541 470.379L262.627 554.728C260.63 557.687 257.946 559.114 255.48 558.528L173.666 539.083C171.753 538.628 170.147 537 169.188 534.546L125.189 421.907C124.12 419.17 123.955 415.661 124.738 412.292ZM150.516 295.034C151.669 290.075 154.383 286.052 157.628 284.494L234.042 247.805C236.666 246.546 239.345 247.042 241.383 249.167L311.825 322.616C313.653 324.522 314.811 327.577 315.054 331.134L323.775 458.904C324.088 463.489 322.847 468.365 320.47 471.888L263.555 556.237C261.178 559.76 257.983 561.459 255.047 560.761L173.233 541.316C170.956 540.775 169.043 538.837 167.902 535.915L123.903 423.276C122.63 420.018 122.434 415.84 123.367 411.83L150.516 295.034Z" fill="#3803B1"/>
<path opacity="0.753623" fill-rule="evenodd" clip-rule="evenodd" d="M118.646 406.834L149.481 292.791C150.584 288.71 152.94 285.52 155.664 284.418L231.786 253.634C234.011 252.734 236.234 253.33 237.874 255.267L304.063 333.403C305.541 335.148 306.421 337.833 306.513 340.881L310.38 468.41C310.498 472.295 309.325 476.313 307.253 479.118L248.453 558.739C246.381 561.543 243.686 562.763 241.27 561.99L161.965 536.61C160.07 536.004 158.521 534.224 157.652 531.654L118.746 416.576C117.781 413.724 117.745 410.167 118.646 406.834ZM148.14 292.206C149.454 287.347 152.258 283.55 155.501 282.238L231.623 251.454C234.272 250.383 236.918 251.093 238.871 253.398L305.059 331.534C306.819 333.611 307.866 336.808 307.976 340.437L311.843 467.965C311.984 472.591 310.587 477.374 308.121 480.713L249.32 560.334C246.855 563.673 243.646 565.125 240.77 564.205L161.465 538.825C159.208 538.103 157.364 535.984 156.33 532.925L117.424 417.847C116.276 414.451 116.232 410.217 117.305 406.249L148.14 292.206Z" fill="#3803B1"/>
<path opacity="0.768116" fill-rule="evenodd" clip-rule="evenodd" d="M112.765 401.58L147.111 290.61C148.344 286.626 150.768 283.631 153.484 282.736L229.125 257.803C231.365 257.065 233.554 257.839 235.119 259.924L296.995 342.332C298.412 344.219 299.195 347.018 299.174 350.118L298.307 476.963C298.28 480.87 296.981 484.798 294.842 487.441L234.351 562.184C232.212 564.828 229.513 565.839 227.152 564.882L150.497 533.825C148.624 533.066 147.138 531.136 146.363 528.457L112.512 411.42C111.655 408.46 111.748 404.866 112.765 401.58ZM145.805 289.904C147.274 285.16 150.159 281.596 153.392 280.53L229.033 255.597C231.699 254.718 234.306 255.64 236.169 258.122L298.045 340.53C299.731 342.776 300.664 346.108 300.639 349.798L299.771 476.644C299.74 481.295 298.193 485.971 295.647 489.118L235.156 563.861C232.609 567.008 229.396 568.212 226.586 567.073L149.931 536.016C147.701 535.113 145.931 532.815 145.008 529.625L111.158 412.588C110.138 409.064 110.248 404.785 111.459 400.874L145.805 289.904Z" fill="#3803B1"/>
<path opacity="0.782609" fill-rule="evenodd" clip-rule="evenodd" d="M107.083 396.546L144.758 288.954C146.115 285.078 148.598 282.286 151.298 281.596L226.277 262.446C228.526 261.872 230.677 262.824 232.162 265.051L289.684 351.315C291.035 353.341 291.718 356.247 291.581 359.39L286.115 485.122C285.945 489.037 284.525 492.864 282.325 495.34L220.343 565.072C218.143 567.548 215.448 568.35 213.147 567.215L139.27 530.748C137.423 529.837 136.004 527.759 135.326 524.976L106.476 406.455C105.731 403.395 105.953 399.774 107.083 396.546ZM143.492 288.128C145.107 283.515 148.063 280.19 151.278 279.369L226.256 260.22C228.934 259.536 231.494 260.669 233.262 263.32L290.784 349.584C292.393 351.996 293.205 355.456 293.043 359.197L287.577 484.929C287.374 489.59 285.684 494.146 283.065 497.093L221.083 566.826C218.464 569.773 215.255 570.728 212.516 569.376L138.639 532.91C136.44 531.825 134.751 529.352 133.944 526.038L105.093 407.517C104.207 403.874 104.471 399.563 105.816 395.721L143.492 288.128Z" fill="#3803B1"/>
<path opacity="0.797101" fill-rule="evenodd" clip-rule="evenodd" d="M101.588 391.747L142.402 287.822C143.876 284.067 146.409 281.481 149.087 280.995L223.226 267.547C225.481 267.138 227.587 268.265 228.988 270.63L282.132 360.331C283.413 362.493 283.992 365.5 283.738 368.677L273.823 492.88C273.511 496.791 271.976 500.505 269.721 502.807L206.449 567.413C204.194 569.715 201.51 570.308 199.275 568.999L128.29 527.4C126.474 526.336 125.127 524.114 124.55 521.233L100.626 401.696C99.9954 398.544 100.347 394.907 101.588 391.747ZM141.178 286.88C142.934 282.41 145.949 279.331 149.138 278.753L223.277 265.304C225.96 264.817 228.468 266.159 230.136 268.975L283.28 358.676C284.805 361.25 285.494 364.83 285.192 368.612L275.277 492.815C274.905 497.47 273.078 501.892 270.394 504.633L207.121 569.238C204.437 571.979 201.241 572.686 198.581 571.126L127.596 529.528C125.434 528.261 123.83 525.616 123.144 522.186L99.2199 402.649C98.4689 398.897 98.8875 394.567 100.365 390.805L141.178 286.88Z" fill="#3803B1"/>
<path opacity="0.811594" fill-rule="evenodd" clip-rule="evenodd" d="M96.2671 387.199L140.02 287.211C141.606 283.588 144.181 281.213 146.831 280.928L219.96 273.084C222.214 272.843 224.271 274.144 225.584 276.641L274.343 369.36C275.55 371.655 276.021 374.757 275.65 377.958L261.448 500.231C260.996 504.124 259.352 507.715 257.05 509.839L192.687 569.218C190.385 571.342 187.718 571.727 185.554 570.248L117.563 523.802C115.783 522.586 114.512 520.223 114.04 517.25L94.952 397.157C94.4379 393.922 94.9189 390.28 96.2671 387.199ZM138.844 286.155C140.732 281.843 143.797 279.014 146.952 278.676L220.081 270.832C222.764 270.544 225.213 272.093 226.776 275.066L275.536 367.785C276.973 370.517 277.533 374.209 277.091 378.021L262.889 500.293C262.351 504.928 260.394 509.203 257.653 511.732L193.29 571.111C190.55 573.639 187.375 574.097 184.799 572.337L116.808 525.891C114.689 524.443 113.175 521.63 112.613 518.091L93.5256 397.998C92.9135 394.147 93.4861 389.811 95.0911 386.143L138.844 286.155Z" fill="#3803B1"/>
<path opacity="0.826087" fill-rule="evenodd" clip-rule="evenodd" d="M91.1074 382.913L137.595 287.117C139.284 283.637 141.893 281.475 144.508 281.389L216.465 279.04C218.713 278.967 220.715 280.438 221.937 283.063L266.321 378.383C267.45 380.807 267.81 383.996 267.319 387.213L249.008 507.17C248.418 511.032 246.671 514.49 244.329 516.431L179.075 570.501C176.733 572.442 174.092 572.62 172.002 570.978L107.094 519.977C105.354 518.61 104.164 516.109 103.799 513.052L89.4408 392.851C89.0455 389.542 89.6554 385.905 91.1074 382.913ZM136.47 285.95C138.481 281.807 141.587 279.234 144.699 279.132L216.657 276.782C219.333 276.695 221.716 278.447 223.171 281.571L267.555 376.892C268.899 379.778 269.328 383.574 268.743 387.403L250.432 507.36C249.73 511.958 247.65 516.075 244.861 518.386L179.608 572.456C176.82 574.766 173.675 574.978 171.187 573.023L106.28 522.023C104.208 520.395 102.791 517.417 102.356 513.778L87.9984 393.577C87.5278 389.638 88.2539 385.309 89.9825 381.747L136.47 285.95Z" fill="#3803B1"/>
<path opacity="0.84058" fill-rule="evenodd" clip-rule="evenodd" d="M86.0956 378.903L135.107 287.533C136.893 284.204 139.527 282.259 142.1 282.369L212.73 285.392C214.966 285.488 216.908 287.128 218.035 289.872L258.071 387.381C259.117 389.93 259.364 393.198 258.753 396.42L236.519 513.694C235.795 517.513 233.951 520.829 231.575 522.583L165.632 571.278C163.257 573.032 160.647 573.005 158.636 571.206L96.8875 515.948C95.1911 514.43 94.0858 511.795 93.8309 508.661L84.0804 388.789C83.806 385.415 84.5437 381.796 86.0956 378.903ZM134.037 286.259C136.162 282.297 139.298 279.981 142.361 280.112L212.991 283.135C215.654 283.249 217.966 285.201 219.307 288.468L259.343 385.977C260.589 389.011 260.883 392.903 260.155 396.738L237.921 514.012C237.059 518.558 234.864 522.506 232.036 524.594L166.093 573.289C163.265 575.377 160.158 575.345 157.764 573.203L96.0156 517.945C93.996 516.138 92.6803 513.001 92.3768 509.271L82.6263 389.399C82.2996 385.382 83.1779 381.074 85.0254 377.629L134.037 286.259Z" fill="#3803B1"/>
<path opacity="0.855072" fill-rule="evenodd" clip-rule="evenodd" d="M81.2184 375.179L132.538 288.45C134.412 285.283 137.062 283.557 139.588 283.858L208.743 292.118C210.963 292.383 212.84 294.188 213.869 297.046L249.597 396.334C250.558 399.004 250.688 402.345 249.957 405.562L223.998 519.803C223.143 523.566 221.209 526.729 218.808 528.293L152.373 571.565C149.972 573.129 147.401 572.9 145.473 570.949L86.9456 511.737C85.2974 510.07 84.2814 507.305 84.1394 504.102L78.8586 384.983C78.7066 381.554 79.5709 377.963 81.2184 375.179ZM131.526 287.073C133.757 283.303 136.912 281.248 139.919 281.607L209.073 289.866C211.716 290.182 213.951 292.331 215.176 295.733L250.904 395.021C252.048 398.199 252.203 402.177 251.333 406.007L225.374 520.248C224.356 524.727 222.054 528.494 219.195 530.355L152.76 573.627C149.902 575.489 146.841 575.216 144.546 572.894L86.0185 513.682C84.0565 511.697 82.8469 508.406 82.6779 504.593L77.397 385.474C77.216 381.391 78.245 377.117 80.2063 373.802L131.526 287.073Z" fill="#3803B1"/>
<path opacity="0.869565" fill-rule="evenodd" clip-rule="evenodd" d="M76.4621 371.75L129.869 289.859C131.824 286.861 134.482 285.355 136.955 285.843L204.494 299.194C206.693 299.629 208.501 301.595 209.428 304.56L240.906 405.224C241.778 408.01 241.789 411.416 240.938 414.618L211.462 525.497C210.481 529.191 208.464 532.194 206.044 533.565L139.314 571.381C136.894 572.753 134.368 572.324 132.527 570.23L77.2708 507.368C75.6752 505.553 74.7525 502.664 74.7258 499.399L73.763 381.442C73.7346 377.967 74.7237 374.416 76.4621 371.75ZM128.918 288.383C131.246 284.814 134.411 283.021 137.354 283.603L204.894 296.953C207.511 297.471 209.663 299.811 210.767 303.341L242.245 404.006C243.282 407.322 243.296 411.377 242.283 415.188L212.807 526.068C211.638 530.465 209.237 534.04 206.357 535.673L139.627 573.489C136.746 575.121 133.739 574.611 131.547 572.118L76.2909 509.256C74.3913 507.095 73.2928 503.656 73.2611 499.769L72.2983 381.812C72.2645 377.675 73.442 373.448 75.5115 370.274L128.918 288.383Z" fill="#3803B1"/>
<path opacity="0.884058" fill-rule="evenodd" clip-rule="evenodd" d="M71.8133 368.625L127.084 291.747C129.111 288.927 131.77 287.64 134.183 288.311L199.976 306.596C202.148 307.2 203.881 309.323 204.705 312.388L232.005 414.035C232.783 416.932 232.673 420.394 231.702 423.57L198.928 530.778C197.823 534.391 195.731 537.226 193.3 538.402L126.469 570.747C124.038 571.924 121.563 571.299 119.813 569.068L67.8643 502.865C66.3253 500.904 65.4998 497.895 65.5907 494.577L68.781 378.174C68.8771 374.663 69.9888 371.163 71.8133 368.625ZM126.198 290.177C128.612 286.82 131.776 285.288 134.65 286.086L200.442 304.372C203.028 305.09 205.092 307.618 206.072 311.267L233.372 412.913C234.298 416.362 234.167 420.484 233.011 424.265L200.237 531.473C198.922 535.774 196.431 539.148 193.537 540.549L126.706 572.894C123.813 574.295 120.866 573.551 118.782 570.895L66.8338 504.692C65.0016 502.357 64.0189 498.775 64.1272 494.825L67.3174 378.422C67.4319 374.243 68.7554 370.076 70.9273 367.055L126.198 290.177Z" fill="#3803B1"/>
<path opacity="0.898551" fill-rule="evenodd" clip-rule="evenodd" d="M67.2582 365.811L124.166 294.102C126.258 291.466 128.908 290.399 131.258 291.246L195.18 314.3C197.32 315.071 198.975 317.347 199.692 320.505L222.899 422.748C223.581 425.751 223.348 429.261 222.258 432.401L186.409 535.649C185.187 539.169 183.027 541.828 180.592 542.808L113.852 569.683C111.417 570.664 109 569.848 107.342 567.488L58.7263 498.251C57.248 496.146 56.5236 493.022 56.7341 489.659L63.9 375.186C64.1213 371.65 65.3531 368.212 67.2582 365.811ZM123.348 292.442C125.838 289.304 128.993 288.034 131.79 289.043L195.713 312.096C198.26 313.015 200.23 315.724 201.083 319.483L224.291 421.726C225.103 425.301 224.825 429.48 223.527 433.217L187.679 536.466C186.224 540.657 183.652 543.822 180.753 544.989L114.013 571.864C111.115 573.031 108.237 572.06 106.264 569.25L57.6478 500.014C55.8879 497.507 55.0255 493.788 55.2761 489.785L62.442 375.311C62.7054 371.103 64.1718 367.009 66.4398 364.151L123.348 292.442Z" fill="#3803B1"/>
<path opacity="0.913043" fill-rule="evenodd" clip-rule="evenodd" d="M62.7833 363.313L121.101 296.908C123.249 294.462 125.882 293.614 128.163 294.632L190.1 322.277C192.203 323.216 193.775 325.64 194.383 328.883L213.597 431.347C214.179 434.451 213.821 438 212.613 441.092L173.923 540.115C172.588 543.531 170.367 546.008 167.936 546.791L101.475 568.213C99.0434 568.996 96.6889 567.995 95.1273 565.512L49.8564 493.55C48.4426 491.303 47.823 488.07 48.1548 484.671L59.1076 372.484C59.4542 368.934 60.8031 365.568 62.7833 363.313ZM120.353 295.164C122.91 292.252 126.044 291.242 128.76 292.454L190.697 320.1C193.201 321.217 195.072 324.103 195.796 327.963L215.01 430.427C215.703 434.123 215.276 438.347 213.838 442.029L175.148 541.052C173.559 545.119 170.915 548.067 168.021 549L101.56 570.421C98.6653 571.354 95.8624 570.161 94.0033 567.206L48.7324 495.244C47.0493 492.569 46.3117 488.72 46.7067 484.674L57.6595 372.486C58.0721 368.26 59.6779 364.254 62.0353 361.569L120.353 295.164Z" fill="#3803B1"/>
<path opacity="0.927536" fill-rule="evenodd" clip-rule="evenodd" d="M58.3753 361.137L117.874 300.149C120.068 297.899 122.677 297.267 124.884 298.449L184.731 330.504C186.792 331.608 188.277 334.174 188.774 337.494L204.107 439.816C204.587 443.015 204.101 446.594 202.776 449.628L161.482 544.184C160.041 547.484 157.768 549.772 155.348 550.359L89.3487 566.359C86.928 566.946 84.6421 565.763 83.1787 563.167L41.2531 488.787C39.9079 486.4 39.3965 483.063 39.8511 479.637L54.3915 370.073C54.8632 366.518 56.3259 363.237 58.3753 361.137ZM117.198 298.326C119.811 295.648 122.917 294.895 125.545 296.302L185.391 328.357C187.845 329.671 189.612 332.727 190.205 336.679L205.538 439.001C206.108 442.809 205.53 447.07 203.953 450.682L162.659 545.238C160.944 549.166 158.238 551.89 155.356 552.589L89.3571 568.589C86.4753 569.288 83.7539 567.88 82.0118 564.789L40.0862 490.409C38.4848 487.567 37.876 483.595 38.4172 479.517L52.9576 369.952C53.5192 365.721 55.2604 361.815 57.7002 359.314L117.198 298.326Z" fill="#3803B1"/>
<path opacity="0.942029" fill-rule="evenodd" clip-rule="evenodd" d="M54.0207 359.284L114.471 303.807C116.703 301.758 119.28 301.339 121.41 302.678L179.067 338.951C181.082 340.218 182.476 342.922 182.861 346.311L194.437 448.14C194.81 451.429 194.197 455.028 192.757 457.992L149.103 547.861C147.561 551.036 145.244 553.129 142.841 553.52L77.4838 564.147C75.0807 564.538 72.8686 563.181 71.5056 560.479L32.9141 483.984C31.6411 481.46 31.2414 478.026 31.82 474.583L49.7393 367.957C50.3356 364.409 51.9083 361.223 54.0207 359.284ZM113.871 301.911C116.529 299.471 119.596 298.973 122.131 300.568L179.789 336.84C182.188 338.349 183.847 341.568 184.305 345.602L195.881 447.431C196.326 451.346 195.595 455.631 193.881 459.16L150.227 549.029C148.392 552.808 145.633 555.3 142.772 555.766L77.4155 566.393C74.5547 566.858 71.9212 565.242 70.2986 562.026L31.707 485.53C30.1916 482.526 29.7158 478.438 30.4046 474.339L48.3238 367.713C49.0338 363.489 50.9061 359.696 53.4208 357.388L113.871 301.911Z" fill="#3803B1"/>
<path opacity="0.956522" fill-rule="evenodd" clip-rule="evenodd" d="M49.7064 357.758L110.879 307.863C113.142 306.018 115.679 305.809 117.726 307.299L173.107 347.592C175.071 349.02 176.37 351.855 176.641 355.305L184.595 456.306C184.86 459.677 184.117 463.287 182.564 466.171L136.796 551.158C135.161 554.195 132.807 556.091 130.429 556.287L65.8888 561.604C63.5104 561.8 61.377 560.274 60.1161 557.475L24.8361 479.165C23.639 476.508 23.3543 472.982 24.0579 469.531L45.1388 366.138C45.8588 362.607 47.5374 359.527 49.7064 357.758ZM110.357 305.9C113.05 303.704 116.07 303.455 118.508 305.229L173.889 345.521C176.226 347.222 177.773 350.597 178.096 354.703L186.05 455.704C186.366 459.718 185.481 464.016 183.632 467.449L137.864 552.436C135.917 556.052 133.116 558.308 130.284 558.542L65.744 563.858C62.9125 564.092 60.3728 562.275 58.8717 558.943L23.5917 480.633C22.1667 477.47 21.8276 473.273 22.6653 469.164L43.7462 365.771C44.6033 361.567 46.6017 357.901 49.1838 355.795L110.357 305.9Z" fill="#3803B1"/>
<path opacity="0.971014" fill-rule="evenodd" clip-rule="evenodd" d="M45.4193 356.558L107.089 312.298C109.371 310.66 111.861 310.657 113.824 312.289L166.848 356.398C168.756 357.985 169.956 360.944 170.113 364.446L174.59 464.298C174.745 467.746 173.872 471.357 172.208 474.149L124.577 554.083C122.854 556.974 120.473 558.667 118.126 558.67L54.5714 558.754C52.2244 558.757 50.1744 557.07 49.0169 554.183L17.0151 474.354C15.8976 471.566 15.7308 467.956 16.5601 464.506L40.5781 364.617C41.4205 361.114 43.2006 358.15 45.4193 356.558ZM106.645 310.275C109.363 308.324 112.327 308.32 114.664 310.264L167.688 354.373C169.959 356.262 171.388 359.785 171.575 363.954L176.052 463.806C176.236 467.91 175.196 472.21 173.216 475.533L125.584 555.467C123.533 558.909 120.699 560.925 117.905 560.928L54.3504 561.012C51.5565 561.016 49.116 559.007 47.738 555.57L15.7362 475.741C14.4058 472.422 14.2072 468.124 15.1946 464.018L39.2125 364.129C40.2154 359.958 42.3345 356.43 44.9759 354.535L106.645 310.275Z" fill="#3803B1"/>
<path opacity="0.985507" fill-rule="evenodd" clip-rule="evenodd" d="M41.1469 355.685L103.088 317.09C105.382 315.66 107.819 315.858 109.693 317.625L160.289 365.342C162.137 367.084 163.236 370.161 163.278 373.707L164.433 472.104C164.474 475.622 163.47 479.225 161.699 481.913L112.455 556.648C110.652 559.384 108.253 560.872 105.944 560.685L43.5379 555.627C41.2292 555.44 39.2668 553.598 38.2137 550.631L9.44632 469.573C8.41184 466.658 8.366 462.97 9.32149 459.533L36.0456 363.395C37.0088 359.931 38.8854 357.094 41.1469 355.685ZM102.725 315.012C105.457 313.311 108.357 313.546 110.588 315.65L161.185 363.366C163.384 365.44 164.693 369.104 164.742 373.325L165.898 471.722C165.947 475.91 164.751 480.2 162.643 483.399L113.399 558.134C111.253 561.391 108.396 563.163 105.647 562.94L43.2415 557.882C40.493 557.659 38.1569 555.467 36.9031 551.934L8.13578 470.876C6.90426 467.406 6.84968 463.016 7.98717 458.924L34.7113 362.786C35.8579 358.662 38.092 355.285 40.7842 353.607L102.725 315.012Z" fill="#3803B1"/>
<path fill-rule="evenodd" clip-rule="evenodd" d="M36.8767 355.137L98.8678 322.217C101.165 320.997 103.541 321.39 105.324 323.283L153.431 374.394C155.214 376.288 156.209 379.477 156.134 383.059L154.132 479.713C154.058 483.295 152.923 486.879 151.048 489.451L100.444 558.866C98.5685 561.438 96.1577 562.718 93.8937 562.344L32.7936 552.249C30.5296 551.875 28.6587 549.888 27.7106 546.849L2.12413 464.846C1.17604 461.807 1.25391 458.048 2.33568 454.633L31.5299 362.471C32.6117 359.056 34.5797 356.357 36.8767 355.137ZM98.5873 320.092C101.322 318.64 104.151 319.107 106.273 321.362L154.38 372.472C156.502 374.727 157.687 378.523 157.599 382.787L155.596 479.442C155.508 483.705 154.157 487.972 151.924 491.034L101.32 560.449C99.0879 563.511 96.2179 565.036 93.5226 564.59L32.4226 554.495C29.7273 554.05 27.5001 551.684 26.3714 548.066L0.78487 466.063C-0.343795 462.445 -0.251106 457.971 1.03672 453.905L30.231 361.743C31.5188 357.678 33.8616 354.464 36.5962 353.012L98.5873 320.092Z" fill="#3803B1"/>
</g>
</svg>
