<svg width="48" height="50" viewBox="0 0 48 50" fill="none" xmlns="http://www.w3.org/2000/svg">
<path d="M20 23C20 23.5933 19.8241 24.1734 19.4944 24.6667C19.1648 25.1601 18.6962 25.5446 18.1481 25.7716C17.5999 25.9987 16.9967 26.0581 16.4147 25.9424C15.8328 25.8266 15.2982 25.5409 14.8787 25.1213C14.4591 24.7018 14.1734 24.1672 14.0576 23.5853C13.9419 23.0033 14.0013 22.4001 14.2284 21.8519C14.4554 21.3038 14.8399 20.8352 15.3333 20.5056C15.8266 20.1759 16.4067 20 17 20C17.7956 20 18.5587 20.3161 19.1213 20.8787C19.6839 21.4413 20 22.2044 20 23ZM31 20C30.4067 20 29.8266 20.1759 29.3333 20.5056C28.8399 20.8352 28.4554 21.3038 28.2284 21.8519C28.0013 22.4001 27.9419 23.0033 28.0576 23.5853C28.1734 24.1672 28.4591 24.7018 28.8787 25.1213C29.2982 25.5409 29.8328 25.8266 30.4147 25.9424C30.9967 26.0581 31.5999 25.9987 32.148 25.7716C32.6962 25.5446 33.1648 25.1601 33.4944 24.6667C33.8241 24.1734 34 23.5933 34 23C34 22.2044 33.6839 21.4413 33.1213 20.8787C32.5587 20.3161 31.7956 20 31 20ZM48 24V48C48.0001 48.3787 47.8926 48.7497 47.6901 49.0698C47.4876 49.3899 47.1984 49.6458 46.8561 49.808C46.5138 49.9701 46.1325 50.0317 45.7565 49.9855C45.3806 49.9394 45.0255 49.7875 44.7325 49.5475L38.6675 44.585L32.6 49.5475C32.2427 49.8397 31.7953 49.9994 31.3338 49.9994C30.8722 49.9994 30.4248 49.8397 30.0675 49.5475L24 44.585L17.9325 49.5475C17.5752 49.8397 17.1278 49.9994 16.6663 49.9994C16.2047 49.9994 15.7573 49.8397 15.4 49.5475L9.3325 44.585L3.2675 49.5475C2.97452 49.7875 2.61941 49.9394 2.24348 49.9855C1.86755 50.0317 1.48625 49.9701 1.14395 49.808C0.801645 49.6458 0.512413 49.3899 0.3099 49.0698C0.107388 48.7497 -8.02814e-05 48.3787 4.49967e-08 48V24C1.39846e-07 17.6348 2.52856 11.5303 7.02944 7.02944C11.5303 2.52856 17.6348 0 24 0C30.3652 0 36.4697 2.52856 40.9706 7.02944C45.4714 11.5303 48 17.6348 48 24ZM44 24C44 18.6957 41.8929 13.6086 38.1421 9.85786C34.3914 6.10714 29.3043 4 24 4C18.6957 4 13.6086 6.10714 9.85786 9.85786C6.10714 13.6086 4 18.6957 4 24V43.78L8.0675 40.4525C8.42479 40.1603 8.87216 40.0006 9.33375 40.0006C9.79533 40.0006 10.2427 40.1603 10.6 40.4525L16.6675 45.415L22.7325 40.4525C23.09 40.1596 23.5379 39.9996 24 39.9996C24.4621 39.9996 24.91 40.1596 25.2675 40.4525L31.3325 45.415L37.4 40.4525C37.7573 40.1603 38.2047 40.0006 38.6662 40.0006C39.1278 40.0006 39.5752 40.1603 39.9325 40.4525L44 43.78V24Z" fill="#3803B1"/>
</svg>
